<?xml version="1.0" encoding="UTF-8" standalone="no"?> <svg width="100%" height="100%" viewBox="0 0 2000 531" version="1.1" xmlns="http://www.w3.org/2000/svg" xmlns:xlink="http://www.w3.org/1999/xlink" xml:space="preserve" xmlns:serif="http://www.serif.com/" style="fill-rule:evenodd;clip-rule:evenodd;stroke-linejoin:round;stroke-miterlimit:1.41421;"> <g transform="matrix(1.41799,0,0,1.41799,-485.336,-307.578)"> <g transform="matrix(1.08668,0,0,1.05903,-52.1541,20.7785)"> <path d="M780.6,202L860,202L860,198L776.2,198L776.2,336L780.6,336L780.6,269L854,269L854,265L780.6,265L780.6,202Z" style="fill:rgb(41,47,51);fill-rule:nonzero;"/> <path d="M945.178,336L949.778,336C948.578,322.2 947.978,314 947.978,302L947.978,269.6C947.978,264 947.978,261.2 947.578,255.8C946.178,238.2 934.778,228 914.178,228C893.378,228 877.978,242 876.778,259.6L881.178,259.6C883.578,240 899.378,232.2 914.178,232.2C931.378,232.2 941.778,240.6 943.178,256.4C943.578,261 943.578,265 943.578,270L943.578,275.4L936.778,275.4C903.978,275.4 872.778,286 872.778,310.6C872.778,329.4 885.178,338.8 905.178,338.8C919.378,338.8 931.778,332.6 939.178,320.8L943.778,310.2L945.178,336ZM905.778,334.6C886.578,334.6 877.578,325 877.578,310.4C877.578,286.4 912.778,277.8 943.578,279.8L943.578,294.2C943.578,315 928.378,334.6 905.778,334.6Z" style="fill:rgb(41,47,51);fill-rule:nonzero;"/> <path d="M1016.56,228C990.156,228 968.356,249.4 968.356,283.4C968.356,318.4 989.156,338.8 1014.96,338.8C1036.56,338.8 1053.56,325.8 1057.76,304.6L1053.36,304.6C1049.36,324 1033.56,334.8 1015.36,334.8C994.156,334.8 973.156,318 973.156,282.4C973.156,248.4 996.356,232 1016.16,232C1037.56,232 1050.76,244.4 1054.16,263.4L1058.56,263.4C1055.56,242.4 1039.36,228 1016.56,228Z" style="fill:rgb(41,47,51);fill-rule:nonzero;"/> <path d="M1157.93,260.4C1155.73,239.8 1142.93,228 1121.73,228C1108.73,228 1096.53,233.4 1088.73,244.4L1084.53,254.8L1084.53,188L1080.13,188L1080.13,336L1084.53,336L1084.53,273.6C1084.53,245.6 1102.53,232.2 1121.73,232.2C1141.73,232.2 1151.53,244.2 1153.53,262C1154.13,267.4 1154.33,272 1154.33,279.4L1154.33,336L1158.73,336L1158.73,277.6C1158.73,269 1158.53,265.8 1157.93,260.4Z" style="fill:rgb(41,47,51);fill-rule:nonzero;"/> <path d="M1215.11,228C1195.91,228 1182.31,240.2 1182.31,256.4C1182.31,274.2 1196.91,281 1213.51,284.8C1238.71,290.6 1247.11,296.8 1247.11,311.4C1247.11,326.6 1233.31,334.6 1216.71,334.6C1199.11,334.6 1185.11,327 1181.71,304.8L1177.31,304.8C1179.91,328.8 1196.71,338.8 1216.31,338.8C1236.91,338.8 1251.71,328 1251.71,311.2C1251.71,293.6 1239.71,286 1215.51,280.6C1198.71,276.8 1186.91,271 1186.91,256.2C1186.91,240.8 1200.31,232.2 1214.91,232.2C1232.11,232.2 1241.91,241 1246.31,259.4L1250.71,259.4C1247.91,242 1236.91,228 1215.11,228Z" style="fill:rgb(41,47,51);fill-rule:nonzero;"/> <path d="M1313.49,228C1287.09,228 1265.29,249.4 1265.29,283.4C1265.29,318.4 1286.09,338.8 1311.89,338.8C1333.49,338.8 1350.49,325.8 1354.69,304.6L1350.29,304.6C1346.29,324 1330.49,334.8 1312.29,334.8C1291.09,334.8 1270.09,318 1270.09,282.4C1270.09,248.4 1293.29,232 1313.09,232C1334.49,232 1347.69,244.4 1351.09,263.4L1355.49,263.4C1352.49,242.4 1336.29,228 1313.49,228Z" style="fill:rgb(41,47,51);fill-rule:nonzero;"/> <path d="M1454.87,260.4C1452.67,239.8 1439.87,228 1418.67,228C1405.67,228 1393.47,233.4 1385.67,244.4L1381.47,254.8L1381.47,188L1377.07,188L1377.07,336L1381.47,336L1381.47,273.6C1381.47,245.6 1399.47,232.2 1418.67,232.2C1438.67,232.2 1448.47,244.2 1450.47,262C1451.07,267.4 1451.27,272 1451.27,279.4L1451.27,336L1455.67,336L1455.67,277.6C1455.67,269 1455.47,265.8 1454.87,260.4Z" style="fill:rgb(41,47,51);fill-rule:nonzero;"/> <path d="M1550.84,336L1555.44,336C1554.24,322.2 1553.64,314 1553.64,302L1553.64,269.6C1553.64,264 1553.64,261.2 1553.24,255.8C1551.84,238.2 1540.44,228 1519.84,228C1499.04,228 1483.64,242 1482.44,259.6L1486.84,259.6C1489.24,240 1505.04,232.2 1519.84,232.2C1537.04,232.2 1547.44,240.6 1548.84,256.4C1549.24,261 1549.24,265 1549.24,270L1549.24,275.4L1542.44,275.4C1509.64,275.4 1478.44,286 1478.44,310.6C1478.44,329.4 1490.84,338.8 1510.84,338.8C1525.04,338.8 1537.44,332.6 1544.84,320.8L1549.44,310.2L1550.84,336ZM1511.44,334.6C1492.24,334.6 1483.24,325 1483.24,310.4C1483.24,286.4 1518.44,277.8 1549.24,279.8L1549.24,294.2C1549.24,315 1534.04,334.6 1511.44,334.6Z" style="fill:rgb(41,47,51);fill-rule:nonzero;"/> <path d="M1589.22,204.8C1590.22,194.2 1596.82,186.6 1612.42,190.4L1612.42,186.2C1608.82,185.4 1607.02,185.2 1603.02,185.2C1594.82,185.2 1586.02,191 1584.82,204.2C1584.42,208.4 1584.42,211.8 1584.42,214.8L1584.42,231.6L1573.02,231.6L1573.02,235.8L1584.42,235.8L1584.42,336L1588.82,336L1588.82,235.8L1610.22,235.8L1610.22,231.6L1588.82,231.6L1588.82,214.8C1588.82,211.8 1588.82,209.2 1589.22,204.8Z" style="fill:rgb(41,47,51);fill-rule:nonzero;"/> <path d="M1637,321.8C1636.8,319 1636.8,316 1636.8,310.4L1636.8,235.2L1657.4,235.2L1657.4,231.6L1636.8,231.6L1636.8,210L1632.4,210L1632.4,231.6L1619.8,231.6L1619.8,235.2L1632.4,235.2L1632.4,309.6C1632.4,315.6 1632.4,319 1632.8,323.8C1633.6,333 1638.6,337.4 1648,337.4C1651.4,337.4 1655.4,337.2 1658,336.8L1658,333.2C1642.4,335.4 1637.8,332.2 1637,321.8Z" style="fill:rgb(41,47,51);fill-rule:nonzero;"/> <rect x="777" y="398" width="17.2" height="138" style="fill:rgb(183,42,33);fill-rule:nonzero;"/> <path d="M913.8,458.2C912.2,439.6 899.2,427.2 876,427.2C865.2,427.2 857.4,429 848.4,436L841.8,448.2L841.8,430L824.6,430L824.6,536L841.8,536L841.8,489.4C841.8,453.2 855.8,440.8 872.4,440.8C888.8,440.8 895.6,450 896.6,462.4C897,467.8 897,472.2 897,477.6L897,536L914.2,536L914.2,476.4C914.2,467.8 914.2,463.6 913.8,458.2Z" style="fill:rgb(183,42,33);fill-rule:nonzero;"/> <path d="M961.8,409.6C963.2,401 971.8,398 984.8,400.4L984.8,386.2C981.2,385.6 977,385.2 972.6,385.2C956.8,385.2 946.4,393.8 944.6,409.2C944.2,412.8 944,418 944,422L944,430.8L932.6,430.8L932.6,444L944,444L944,536L961.2,536L961.2,444L983,444L983,430.8L961.2,430.8L961.2,420.4C961.2,417.4 961.4,412.4 961.8,409.6Z" style="fill:rgb(183,42,33);fill-rule:nonzero;"/> <path d="M1045,427.2C1009,427.2 992.4,453 992.4,483C992.4,512.8 1009,538.8 1045,538.8C1081,538.8 1097.6,512.8 1097.6,483C1097.6,453 1081,427.2 1045,427.2ZM1045,525.6C1023.6,525.6 1011.2,507.8 1011.2,483C1011.2,458 1023.6,440.4 1045,440.4C1066.4,440.4 1078.8,458 1078.8,483C1078.8,507.8 1066.4,525.6 1045,525.6Z" style="fill:rgb(183,42,33);fill-rule:nonzero;"/> <path d="M1160,427.6C1155,427.6 1149.6,429.4 1145.2,432.4L1135.6,446.6L1135.6,430L1118.4,430L1118.4,536L1135.6,536L1135.6,475.6C1135.6,451.4 1149.2,440.8 1167.2,442L1167.2,429C1165.2,428 1162.8,427.6 1160,427.6Z" style="fill:rgb(11,96,138);fill-rule:nonzero;"/> <path d="M1325.4,453C1323,438.4 1312.2,427.2 1293.2,427.2C1283.8,427.2 1276.2,429 1270.8,433.4L1261.4,447C1257.4,435.4 1247,427.2 1230.8,427.2C1221.4,427.2 1213.8,429 1208.4,433.4L1201.6,445.4L1201.6,430L1184.4,430L1184.4,536L1201.6,536L1201.6,483.6C1201.6,451.4 1211.4,440.8 1224.8,440.8C1236.8,440.8 1244.4,446.6 1246,458.6C1246.6,464 1246.8,469.8 1246.8,479.2L1246.8,536L1264,536L1264,483.6C1264,451.4 1273.8,440.8 1287.2,440.8C1299.2,440.8 1306.8,446.6 1308.4,458.6C1309,464 1309.2,469.8 1309.2,479.2L1309.2,536L1326.4,536L1326.4,471.2C1326.4,462.6 1326.2,458.4 1325.4,453Z" style="fill:rgb(11,96,138);fill-rule:nonzero;"/> <path d="M1416.2,536L1433.4,536C1431.8,524.2 1431.4,517 1431.4,509L1431.4,469.2C1431.4,464.6 1431.2,459.4 1430.8,455.2C1429,437.8 1418.4,427.2 1393.2,427.2C1369.8,427.2 1354,440.2 1352.4,462.8L1370.4,462.8C1371.6,448.2 1378.8,440.4 1393.2,440.4C1407.4,440.4 1413,446.8 1413.8,456.6C1414.2,460.6 1414.2,464.8 1414.2,469.4L1414.2,472.2L1407.4,472.2C1365.8,472.2 1347.8,484.6 1347.8,508.6C1347.8,528.2 1362.8,538.8 1382,538.8C1392.2,538.8 1401.4,537.2 1408.6,532.2L1414.4,520.8L1416.2,536ZM1387.8,525.6C1374.8,525.6 1366.6,520 1366.6,507.2C1366.6,489 1385,482.8 1414.2,485L1414.2,495.8C1414.2,515 1403.8,525.6 1387.8,525.6Z" style="fill:rgb(11,96,138);fill-rule:nonzero;"/> <path d="M1482.2,444L1502,444L1502,430.8L1482.2,430.8L1482.2,406.2L1465,406.2L1465,430.8L1450.8,430.8L1450.8,444L1465,444L1465,505.8C1465,511.8 1465,516.2 1465.2,519C1466.2,532.2 1473,537.6 1486.2,537.6C1491,537.6 1495.8,537.4 1500.8,536.6L1500.8,524C1487.4,525.6 1483.2,523.4 1482.4,513.2C1482.2,510.4 1482.2,508.6 1482.2,505L1482.2,444Z" style="fill:rgb(11,96,138);fill-rule:nonzero;"/> <path d="M1532.8,395.2C1526.6,395.2 1521.8,400 1521.8,406.2C1521.8,412.4 1526.6,417.2 1532.8,417.2C1539,417.2 1543.8,412.4 1543.8,406.2C1543.8,400 1539,395.2 1532.8,395.2ZM1541.4,536L1541.4,430L1524.2,430L1524.2,536L1541.4,536Z" style="fill:rgb(11,96,138);fill-rule:nonzero;"/> <path d="M1637.6,536L1661,536L1611,480L1660.4,430L1638.4,430L1589,483.4L1589,389L1571.8,389L1571.8,536L1589,536L1589,502.2L1599,491.2L1637.6,536Z" style="fill:rgb(11,96,138);fill-rule:nonzero;"/> </g> <g transform="matrix(2.16752,0,0,2.16752,516.378,404.402)"> <g transform="matrix(1,0,0,1,-80,-86.5)"> <clipPath id="_clip1"> <rect x="0" y="0" width="160" height="173"/> </clipPath> <g clip-path="url(#_clip1)"> <g transform="matrix(1,0,0,1,-10.555,-24.648)"> <g transform="matrix(1,0,0,1,0,-168.148)"> <path d="M124.23,245.621L110.68,245.621L110.68,242.527L137.715,242.527L137.715,245.621L124.23,245.621Z" style="fill:rgb(102,128,128);"/> </g> <g transform="matrix(1,0,0,1,0,-48.551)"> <path d="M124.23,185.953L110.68,185.953L110.68,182.598L137.715,182.598L137.715,185.953L124.23,185.953Z" style="fill:rgb(102,128,128);"/> </g> <g transform="matrix(1,0,0,1,0,-108.02)"> <path d="M110.809,214.043L110.809,182.465L114.098,182.465L114.098,245.555L110.809,245.555L110.809,214.043Z" style="fill:rgb(102,128,128);"/> </g> <g transform="matrix(1,0,0,1,0,-55.324)"> <path d="M137.648,187.66L137.648,122.008L142.453,122.008L142.453,253.316L137.648,253.316L137.648,187.66Z" style="fill:rgb(102,128,128);"/> </g> <g transform="matrix(1,0,0,1,0,-228.668)"> <path d="M98.836,253.316L171.004,275.023L171.004,295.352L27.59,295.352L27.59,275.023L98.836,253.316Z" style="fill:rgb(102,128,128);"/> </g> <g transform="matrix(1,0,0,1,0,-49.207)"> <path d="M45.684,122.602L72.523,122.602L36.406,246.605L10.555,246.605L45.684,122.602Z" style="fill:rgb(102,128,128);"/> </g> <g transform="matrix(1,0,0,1,0,-49.403)"> <path d="M131.07,193.255L122.453,184.766L139.82,167.598L157.059,184.7L139.691,201.805L131.07,193.255Z" style="fill:rgb(188,38,26);"/> </g> <g transform="matrix(1,0,0,1,0,-128.215)"> <path d="M139.82,234.5L125.676,234.5L125.676,213.715L153.965,213.715L153.965,234.5L139.82,234.5Z" style="fill:rgb(188,38,26);"/> </g> <g transform="matrix(1,0,0,1,0,-128.148)"> <rect x="125.676" y="213.648" width="28.355" height="20.852" style="fill:rgb(0,96,142);"/> </g> <g transform="matrix(1,0,0,1,0,32.562)"> <path d="M139.82,154.18L125.676,154.18L125.676,133.258L153.965,133.258L153.965,154.18L139.82,154.18Z" style="fill:rgb(0,96,142);"/> </g> </g> </g> </g> </g> </g> </svg>